<svg id="Layer_1" data-name="Layer 1" xmlns="http://www.w3.org/2000/svg" viewBox="0 0 65 316"><defs><style>.cls-1{fill:#779556;}.cls-2{fill:#ebecd0;}.cls-3{fill:#48484a;}.cls-4{fill:#3d3d3f;}.cls-5{fill:#aeb8b7;}.cls-6{fill:#bac7c6;}.cls-7{fill:#e0e0e0;}.cls-8{fill:#c3c4c4;}.cls-9{fill:#a2a2a1;}.cls-10{fill:#c7c8ca;}.cls-11{fill:#29292b;}.cls-12{fill:#7abe4f;}.cls-13{fill:#6fad47;}.cls-14{fill:#d4ab85;}.cls-15{fill:#575452;}.cls-16,.cls-17{fill:#fff;isolation:isolate;}.cls-16{opacity:0.2;}.cls-17{opacity:0.5;}.cls-18{fill:#a7886a;}.cls-19{fill:#4b7398;}.cls-20{fill:#e7e8df;}.cls-21{fill:#ffcd00;}.cls-22{opacity:0.3;}.cls-23{fill:#fffabe;}</style></defs><title>svg_vector</title><rect class="cls-1" x="1" y="252" width="64" height="64" rx="6.28" ry="6.28"/><path class="cls-2" d="M64,309.72V284H55.8c-3.73,0-4.6.9-4.11,2,.94,2.06,2.62,2.32,2.19,5.23-.79,5-11.49,5-12.28,0-.44-2.91,1.25-3.17,2.18-5.23.5-1.11-.38-2-4.1-2H32v9c0,3.72-.87,4.59-2,4.1-2.06-.93-2.35-2.62-5.26-2.18-5,.78-5,11.63,0,12.27C27.67,307.68,28,306,30,305c1.11-.49,2,.38,2,4.1V316H57.72A6.28,6.28,0,0,0,64,309.72Z" transform="translate(1)"/><path class="cls-2" d="M12.33,282c-.93-2.06-2.61-2.32-2.18-5.23.79-5,11.64-5,12.28,0,.46,2.91-1.25,3.17-2.18,5.23-.5,1.11.38,2,4.1,2H32v-9c0-3.72.9-4.62,2-4.13,2.06.93,2.35,2.65,5.26,2.18,5-.78,5-11.63,0-12.24-2.91-.47-3.2,1.22-5.26,2.15-1.11.49-2-.38-2-4.1V252H6.28A6.28,6.28,0,0,0,0,258.28H0V284H8.26C12,284,12.83,283.24,12.33,282Z" transform="translate(1)"/><rect class="cls-3" x="1" y="186" width="49.45" height="64" rx="6.28" ry="6.28"/><path class="cls-4" d="M27,242.15a3.14,3.14,0,0,1,0,4.44l0,0a3.17,3.17,0,1,1,0-4.49Z" transform="translate(1)"/><rect class="cls-5" x="6.82" y="191.82" width="37.82" height="46.55"/><path class="cls-6" d="M43.64,191.82c-32.5,23.79-37.82,46.54-37.82,46.54V191.82Z" transform="translate(1)"/><rect class="cls-7" x="33" y="197.64" width="32" height="52.36" rx="6.28" ry="6.28"/><path class="cls-8" d="M50.24,242.15a3.14,3.14,0,0,1,0,4.44l0,0a3.17,3.17,0,1,1,0-4.49Z" transform="translate(1)"/><rect class="cls-5" x="38.82" y="203.45" width="20.36" height="34.91"/><path class="cls-6" d="M37.82,225a117.35,117.35,0,0,1,20.36-21.53H37.82Z" transform="translate(1)"/><polygon class="cls-9" points="9.43 143.22 11.47 143.22 11.95 140.88 9.68 138.1 7.4 140.88 6.53 144.32 8.53 144.32 9.43 143.22"/><polygon class="cls-10" points="8.9 141.55 13.63 141.55 14.25 138.1 9.68 138.1 8.9 141.55"/><polygon class="cls-9" points="7.72 150.68 9.95 150.68 10.55 147.82 8.1 145.05 5.65 147.82 4.67 151.8 6.75 151.8 7.72 150.68"/><polygon class="cls-10" points="7.2 149.03 12.25 149.03 12.97 145.05 8.1 145.05 7.2 149.03"/><polygon class="cls-9" points="5.78 159.3 8.2 159.3 8.9 155.82 6.28 153.05 3.67 155.82 2.52 160.4 4.72 160.4 5.78 159.3"/><polygon class="cls-10" points="5.25 157.63 10.7 157.63 11.53 153.05 6.28 153.05 5.25 157.63"/><polygon class="cls-9" points="3.48 169.35 6.13 169.35 7 165.1 4.17 162.32 1.35 165.1 0 170.47 2.35 170.47 3.48 169.35"/><polygon class="cls-10" points="2.95 167.7 8.85 167.7 9.85 162.32 4.17 162.32 2.95 167.7"/><path class="cls-9" d="M46.57,138H16.43A5.42,5.42,0,0,0,11,141.43L4.9,171a5.17,5.17,0,0,0,3.87,6.21,5.43,5.43,0,0,0,1.66.11h42.5a5.17,5.17,0,0,0,5.49-4.83A5.3,5.3,0,0,0,58.3,171l-6-29.6A5.41,5.41,0,0,0,46.57,138Z" transform="translate(1)"/><polygon class="cls-9" points="11.3 176.25 5.78 172.22 5.78 167.4 11.3 167.2 11.3 176.25"/><polygon class="cls-9" points="53.7 176.25 59.23 172.22 59.23 167.4 53.7 167.2 53.7 176.25"/><polygon class="cls-9" points="55.58 143.22 53.52 143.22 53.05 140.88 55.33 138.1 57.6 140.88 58.48 144.32 56.48 144.32 55.58 143.22"/><polygon class="cls-10" points="56.1 141.55 51.38 141.55 50.75 138.1 55.33 138.1 56.1 141.55"/><polygon class="cls-9" points="57.27 150.68 55.05 150.68 54.45 147.82 56.9 145.05 59.35 147.82 60.33 151.8 58.25 151.8 57.27 150.68"/><polygon class="cls-10" points="57.8 149.03 52.75 149.03 52.02 145.05 56.9 145.05 57.8 149.03"/><polygon class="cls-9" points="59.23 159.3 56.8 159.3 56.1 155.82 58.73 153.05 61.35 155.82 62.48 160.4 60.27 160.4 59.23 159.3"/><polygon class="cls-10" points="59.75 157.63 54.3 157.63 53.48 153.05 58.73 153.05 59.75 157.63"/><polygon class="cls-9" points="61.52 169.35 58.88 169.35 58 165.1 60.83 162.32 63.65 165.1 65 170.47 62.65 170.47 61.52 169.35"/><polygon class="cls-10" points="62.05 167.7 56.13 167.7 55.15 162.32 60.83 162.32 62.05 167.7"/><path class="cls-11" d="M16.43,133.5H46.57A5.41,5.41,0,0,1,52,137l6.06,29.6a5.21,5.21,0,0,1-3.92,6.23,5.52,5.52,0,0,1-1.46.13H10.43a5.22,5.22,0,0,1-5.53-4.86,5.06,5.06,0,0,1,.13-1.5L11.08,137A5.43,5.43,0,0,1,16.43,133.5Z" transform="translate(1)"/><polygon class="cls-9" points="48.23 183.5 47.5 177.05 53.7 177.05 54.7 183.5 48.23 183.5"/><polygon class="cls-9" points="47.88 183.5 47.17 176.25 47.17 174.03 54.38 183.5 47.88 183.5"/><polygon class="cls-9" points="35.58 183.5 35.45 177.05 41.63 177.05 42.08 183.5 35.58 183.5"/><polygon class="cls-9" points="35.5 183.5 35.38 174.03 41.58 177.05 42 183.5 35.5 183.5"/><polygon class="cls-9" points="22.95 183.5 23.38 177.05 29.57 177.05 29.43 183.5 22.95 183.5"/><polygon class="cls-9" points="23 183.5 23.43 177.05 29.63 174.03 29.5 183.5 23 183.5"/><polygon class="cls-9" points="10.3 183.5 11.3 177.05 17.5 177.05 16.8 183.5 10.3 183.5"/><polygon class="cls-9" points="10.63 183.5 17.82 174.03 17.82 176.25 17.13 183.5 10.63 183.5"/><polygon class="cls-10" points="53.23 174.03 47.17 174.03 47.55 177.38 53.75 177.38 53.23 174.03"/><polygon class="cls-10" points="41.42 174.03 35.38 174.03 35.45 177.38 41.65 177.38 41.42 174.03"/><polygon class="cls-10" points="29.63 174.03 23.57 174.03 23.35 177.38 29.55 177.38 29.63 174.03"/><polygon class="cls-10" points="17.82 174.03 11.78 174.03 11.25 177.38 17.48 177.38 17.82 174.03"/><path class="cls-12" d="M48.9,142.65l-.6-2.92c-.4-1.68-1.4-2.23-3.5-2.23H39.92l.18,5.2Z" transform="translate(1)"/><path class="cls-3" d="M16.43,132.23H46.57A5.41,5.41,0,0,1,52,135.7l6.06,29.6a5.21,5.21,0,0,1-3.92,6.23,5.12,5.12,0,0,1-1.46.12H10.43a5.21,5.21,0,0,1-5.53-4.86A5,5,0,0,1,5,165.3l6.05-29.6A5.4,5.4,0,0,1,16.43,132.23Z" transform="translate(1)"/><path class="cls-13" d="M48.9,141.4l-.6-3c-.4-1.68-1.4-2.23-3.5-2.23H39.92l.18,5.2Z" transform="translate(1)"/><path class="cls-12" d="M47.27,141.4l-.44-2.35c-.23-1-.83-1.32-2.08-1.32H40l.12,3.67Z" transform="translate(1)"/><path class="cls-14" d="M25.42,98.1a4.19,4.19,0,0,0,3.76,4.58,5.42,5.42,0,0,0,.57,0,11.89,11.89,0,0,0,5.09-1.3l26.76-12a3.69,3.69,0,0,0,2-3.21V70.82a3.4,3.4,0,0,0-2.89-2.89A158,158,0,0,0,38.25,65,38.22,38.22,0,0,0,24.9,66.8a44.82,44.82,0,0,0-8.44,3.67A40.65,40.65,0,0,0,5.8,77.38C3.28,80.44-.24,86.8,0,88.62a3.52,3.52,0,0,0,3.32,2.89c2.72,0,9.19-8.15,9.19-8.15a46.53,46.53,0,0,1,12.89-4h8.46A8.47,8.47,0,0,1,40.13,84c.95,1.9-11.1,9.48-12.6,10.4a5.11,5.11,0,0,0-1.94,2.89Z" transform="translate(1)"/><path class="cls-15" d="M25.59,97.26a7.52,7.52,0,0,0,0-1.5,9.54,9.54,0,1,0-15.23,7.63c-.6.31-1.73,1-1.73,1.9v2.14a2,2,0,0,0,1.27,1.76L6.52,118a5.9,5.9,0,0,0-4.25,2.11,8.21,8.21,0,0,0-2.11,4.24v4.22a2.17,2.17,0,0,0,2.11,2.14H29.84A2.17,2.17,0,0,0,32,128.61v-4.22a8.14,8.14,0,0,0-2.11-4.24A5.9,5.9,0,0,0,25.59,118l-3.35-8.85a2.07,2.07,0,0,0,1.24-1.76v-2.14c0-.89-1.12-1.59-1.73-1.9a9.94,9.94,0,0,0,3.55-5.23Z" transform="translate(1)"/><path class="cls-16" d="M2.39,128.93a.48.48,0,0,1-.29-.38v-4.16h0a7.15,7.15,0,0,1,1.68-2.89A4.12,4.12,0,0,1,6.66,120H7.91l.46-1.16,3.93-10.31-1.42-.78a.3.3,0,0,1-.29-.2v-2h0a4.24,4.24,0,0,0,.7-.37l2.57-1.36-2.31-1.73A7.59,7.59,0,0,1,8.43,95.9a7.73,7.73,0,0,1,7.71-7.71,8.29,8.29,0,0,1,4.13,7.71,8.28,8.28,0,0,1,0,1.22l-.17.8a7.7,7.7,0,0,1-2.89,4.14l-2.31,1.73s1,1.88,1.07,1.94v1.85l-1.19.92s-.31,7.37-.31,11.56c-6.5.66-4.57,9.07-4.57,9.07Z" transform="translate(1)"/><path class="cls-17" d="M10.28,95.76A5.78,5.78,0,0,1,15.62,90C17.44,91.22,10.28,97.61,10.28,95.76Z" transform="translate(1)"/><path class="cls-18" d="M63.56,86.22V74a38,38,0,0,1-7.69,14L44.32,97.23h0l17.33-7.8A3.7,3.7,0,0,0,63.56,86.22Z" transform="translate(1)"/><rect class="cls-19" x="1" width="64" height="64" rx="6.28" ry="6.28"/><path class="cls-20" d="M32,0H6.28A6.28,6.28,0,0,0,0,6.28H0V31.83H32Z" transform="translate(1)"/><path class="cls-20" d="M32,64H59.11A6.32,6.32,0,0,0,64,57.86V32H32Z" transform="translate(1)"/><path class="cls-21" d="M21.18,52.92a1.39,1.39,0,0,1-1-.44l-8.73-8.73a1.49,1.49,0,0,1-.4-1,1.43,1.43,0,0,1,.4-1L30.25,22.87l-7.38-7.39a1.39,1.39,0,0,1-.32-1.57A1.46,1.46,0,0,1,23.88,13H49.4a1.45,1.45,0,0,1,1.45,1.46V40a1.45,1.45,0,0,1-.9,1.34,1.69,1.69,0,0,1-.55,0,1.49,1.49,0,0,1-1-.44L41,33.66,22.14,52.48A1.46,1.46,0,0,1,21.18,52.92Z" transform="translate(1)"/><path class="cls-19" d="M49.45,14.55V40L41,31.59l-19.78,20-8.73-8.73L32.29,23l-8.44-8.41H49.37m0-2.91H23.85a2.93,2.93,0,0,0-2.06,5L28.19,23l-17.8,17.8a3,3,0,0,0-.85,2A2.93,2.93,0,0,0,10.39,45l8.72,8.72a3,3,0,0,0,2,.88h0a2.9,2.9,0,0,0,2.06-.88L41,35.72,47.3,42a2.91,2.91,0,0,0,5-2V14.55a2.91,2.91,0,0,0-2.91-2.91Z" transform="translate(1)"/><g class="cls-22"><path class="cls-23" d="M23.94,14.55,32.38,23,12.54,42.88l4.3,4.31S49.45,14.63,49.45,14.66H23.94Z" transform="translate(1)"/></g></svg>