<svg xmlns="http://www.w3.org/2000/svg" viewBox="0 0 471 57.7">
  <defs>
    <style>
      .a{fill:#67a3d3}.c,.d{fill:#fff}.c{opacity:.5}.e{fill:#5c8cb1}.f{fill:#7eadca}.g{fill:#b9d0e1}.i{fill:#6c9d40}
    </style>
  </defs>
  <path class="a" d="M159.5 57.2a1.9 1.9 0 0 1-1.6-1l-28.5-37a2 2 0 0 1-.2-1.4 2 2 0 0 1 .8-1.2L144.7.7a1.9 1.9 0 0 1 1-.3h27.5a1.9 1.9 0 0 1 1 .3L189 16.5a2 2 0 0 1 .8 1.2 2 2 0 0 1-.2 1.5l-28.4 37a1.9 1.9 0 0 1-1.6 1z"/>
  <path class="a" d="M159.5 57.2a1.9 1.9 0 0 1-1.6-1l-28.5-37a2 2 0 0 1-.2-1.4 2 2 0 0 1 .8-1.2L144.7.7a1.9 1.9 0 0 1 1-.3h27.5a1.9 1.9 0 0 1 1 .3L189 16.5a2 2 0 0 1 .8 1.2 2 2 0 0 1-.2 1.5l-28.4 37a1.9 1.9 0 0 1-1.6 1z"/>
  <path d="M159.5 57.2a1.9 1.9 0 0 1-1.6-1l-28.5-37a2 2 0 0 1-.2-1.4 2 2 0 0 1 .8-1.2L144.7.7a1.9 1.9 0 0 1 1-.3h27.5a1.9 1.9 0 0 1 1 .3L189 16.5a2 2 0 0 1 .8 1.2 2 2 0 0 1-.2 1.5l-28.4 37a1.9 1.9 0 0 1-1.6 1z" fill="#006eb3"/>
  <path class="c" d="M173.3 2.4h-27.6L131 18.2l28.5 37 13-33 15.5-4-14.7-15.8z"/>
  <path class="c" d="M172.5 22.3l-4.7-19.9h-22.1L131 18.2l28.5 37-13-33h26z"/>
  <path class="d" d="M146.4 22.3l4.8-19.9h-5.5L131 18.2l15.4 4z"/>
  <path class="e" d="M279 45.2a5 5 0 0 0 .2-1.3 5.2 5.2 0 0 0-.5-2.4c-1-2.1-3.6-3-6.2-3.9a13.3 13.3 0 0 1-3-1.2 87.9 87.9 0 0 1-1.3-9.6c.7 0 1.2 0 1.7-.2 1.3 0 2.4-.2 3-1.2A9.9 9.9 0 0 0 274 21a2.4 2.4 0 0 0-1-2l-3-1.8a10.6 10.6 0 0 0 2.4-6.7 10.5 10.5 0 0 0-21 0 10.6 10.6 0 0 0 2.3 6.7l-3 1.8a2.4 2.4 0 0 0-1 2 9.9 9.9 0 0 0 1.2 4.4c.6 1 1.7 1 3 1.2l1.6.2a89.6 89.6 0 0 1-1.2 9.5 12.3 12.3 0 0 1-3 1.3c-2.6.9-5.2 1.8-6.2 4a5.3 5.3 0 0 0-.6 2.2 5 5 0 0 0 .2 1.3 5 5 0 0 0-2.2 4.2 5.8 5.8 0 0 0 1.9 4.3 16.2 16.2 0 0 0 6 2.7 51.1 51.1 0 0 0 23 0 15.8 15.8 0 0 0 6-2.7 5.8 5.8 0 0 0 1.9-4.3 5 5 0 0 0-2.2-4.1z"/>
  <path class="f" d="M259 50.4c-2.5-.3-10.3-1.5-12.2-4.4a5 5 0 0 0-1.8 1.4c0 3 9.6 4.3 14 3.8 1.4-.2.7-.7 0-.8zM262 27.9l-4.5-1.7A98.7 98.7 0 0 1 256 37c-.7 2.3-8 2.6-9.3 5.4-.6 1.2 2.2 3 8.9 3 6.3 0 6.9-8.5 8-15.1.2-1.3-1-2.2-1.7-2.4zM265.1 20.6a31.4 31.4 0 0 0-3.9-3 8.8 8.8 0 0 0 6.6-8.6c0-5.3-3.3-7-5.7-7h-.3a8.6 8.6 0 0 0-4.9 15.6l-5.1 3a.6.6 0 0 0-.2.4 8 8 0 0 0 1 3.4c0 .3 3.8.6 8.7.7h3.2c.5 0 .9-3.3 1-4a.7.7 0 0 0-.4-.5z"/>
  <path class="g" d="M260.5 4c3.7.6-1.7 5-3.5 4.7s0-5.2 3.5-4.7z"/>
  <path d="M234 44.8a5 5 0 0 0 0-1.3 5.1 5.1 0 0 0-.5-2.3c-1-2-3.5-3-6-3.8a13.1 13.1 0 0 1-3-1.2 86.2 86.2 0 0 1-1.2-9.4l1.6-.1c1.3-.2 2.3-.3 3-1.3a9.7 9.7 0 0 0 1-4.3 2.4 2.4 0 0 0-1-2l-3-1.7a10.4 10.4 0 0 0 2.4-6.6 10.3 10.3 0 0 0-20.6 0 10.4 10.4 0 0 0 2.4 6.6l-3 1.7a2.4 2.4 0 0 0-1 2 9.7 9.7 0 0 0 1 4.3c.7 1 1.7 1 3 1.2l1.6.1a87.8 87.8 0 0 1-1.2 9.4 12 12 0 0 1-3 1.3c-2.5.8-5 1.7-6 3.8a5.2 5.2 0 0 0-.6 2.3 5 5 0 0 0 .2 1.3 5 5 0 0 0-2.1 4 5.7 5.7 0 0 0 1.8 4.3 15.9 15.9 0 0 0 5.9 2.7 50.1 50.1 0 0 0 22.6 0 15.5 15.5 0 0 0 6-2.7A5.7 5.7 0 0 0 236 49a5 5 0 0 0-2-4.1z" fill="#537c38"/>
  <path class="i" d="M214.2 50c-2.4-.3-10-1.5-12-4.3a5 5 0 0 0-1.7 1.3c0 2.9 9.4 4.3 13.7 3.7 1.4-.1.7-.6 0-.7zM217 27.9l-4.2-1.7a96.8 96.8 0 0 1-1.5 10.7c-.7 2.2-7.9 2.5-9 5.2-.7 1.2 2 3 8.6 3 6.2 0 6.7-8.3 7.9-14.9.2-1.2-1.1-2-1.7-2.3zM220.3 20.7a30.8 30.8 0 0 0-3.9-3 8.6 8.6 0 0 0 6.5-8.4c0-5.1-3.3-6.8-5.6-6.9h-.3a8.4 8.4 0 0 0-4.8 15.4c-1.2.7-4.3 2.4-5 3a.6.6 0 0 0-.2.4 7.9 7.9 0 0 0 .9 3.4c.1.2 3.8.5 8.6.6h3.1c.5 0 1-3.2 1-3.9a.7.7 0 0 0-.3-.6z"/>
  <path d="M215.7 4.5c3.7.5-1.7 4.8-3.4 4.6s0-5.2 3.4-4.6z" fill="#c5d4a1"/>
  <path d="M315.8.7A28.2 28.2 0 1 0 344 28.8 28.2 28.2 0 0 0 315.8.7zm-20.2 28.1a20.3 20.3 0 0 1 20.2-20.3 20 20 0 0 1 11.4 3.6l-28 28.1a20 20 0 0 1-3.6-11.4zM315.8 49a20 20 0 0 1-11.4-3.5l28.1-28.1a20 20 0 0 1 3.5 11.4A20.2 20.2 0 0 1 315.8 49z" fill="#b33430"/>
  <path d="M399.1 8.7A28.5 28.5 0 1 0 358.8 49a28.5 28.5 0 0 0 40.3-40.3zm-13.8 20.6l7.1 7.2a1.5 1.5 0 0 1 0 2l-4 4.1a1.5 1.5 0 0 1-2.1 0l-7.2-7a.4.4 0 0 0-.5 0l-7 7a1.5 1.5 0 0 1-2.2 0l-4-4a1.5 1.5 0 0 1 0-2.1l7-7.1a.4.4 0 0 0 0-.6l-7.4-7.4a1.5 1.5 0 0 1 0-2l4.1-4.1a1.5 1.5 0 0 1 2 0l7.5 7.4a.4.4 0 0 0 .5 0l7.4-7.4a1.5 1.5 0 0 1 2.1 0l4.1 4a1.5 1.5 0 0 1 0 2.1l-7.4 7.4a.4.4 0 0 0 0 .6z" fill="#b5332b"/>
  <path d="M462.6 8.7A28.5 28.5 0 1 0 422.3 49a28.5 28.5 0 0 0 40.3-40.3zm-13.8 20.6l7.1 7.2a1.5 1.5 0 0 1 0 2l-4 4.1a1.5 1.5 0 0 1-2.1 0l-7.2-7a.4.4 0 0 0-.5 0l-7.1 7a1.5 1.5 0 0 1-2 0l-4.2-4a1.5 1.5 0 0 1 0-2.1l7.1-7.1a.4.4 0 0 0 0-.6l-7.4-7.4a1.5 1.5 0 0 1 0-2l4.1-4.2a1.5 1.5 0 0 1 2.1 0l7.4 7.5a.4.4 0 0 0 .5 0l7.4-7.5a1.5 1.5 0 0 1 2.1 0l4.1 4.1a1.5 1.5 0 0 1 0 2.1l-7.4 7.4a.4.4 0 0 0 0 .6z" fill="#bfbeba"/>
  <path class="e" d="M75.5 37.6l-3.8-5.8 8-30.3s1.2-3.2 2.2.2L87.3 18h13.2l3.8-14.3s1.1-7.7 3.2-.3l8.6 29.4-4 4.8H75.6z"/>
  <path d="M93.7 55.5c-17 0-21.2-10.1-21.8-11.6L67.3 9.3 76.2 26a2 2 0 0 0 .4.6l4 4.4a1.9 1.9 0 0 0 1.3.6 1.7 1.7 0 0 0 .4 0 2 2 0 0 0 1.4-1.3l10-23.3 10 23.3a2 2 0 0 0 1.4 1.2 1.8 1.8 0 0 0 .4 0 1.9 1.9 0 0 0 1.4-.6l3.9-4.3a2 2 0 0 0 .4-.6l9.3-17.9-5 35.7c-.5 1.4-4.5 11.5-21.6 11.6h-.2z" fill="#80a6c5"/>
  <path class="g" d="M66.6 6a2.6 2.6 0 0 0-.2 1l5 37.3c0 .3 4 12 22.3 12v1.3l.2-1.3c18.5 0 22.2-12 22.2-12.2L121.3 7a1 1 0 0 0-.1-.9c-.3 0-.6 0-1 .9l-9.8 19.2-5.3 5.8L93.8 5.6l-.1-.3v.2L82.2 32l-5.5-6.2-10-19.6a2.5 2.5 0 0 0-.2-.3z"/>
  <path d="M109.5 25.3l-4 4.3L95 5a4 4 0 0 0-.2-.5l-.2-.2a1 1 0 0 0-.9-.7 1.3 1.3 0 0 0-.9.7 2 2 0 0 0-.1.2 4.6 4.6 0 0 0-.3.5L82 29.6l-4-4.3-10.6-16c1.8 10 8.6 40.4 15 45a83.8 83.8 0 0 0 11.2 1h.3a83.8 83.8 0 0 0 11.2-1c6.4-4.6 13.1-35 15-45z" fill="#e4e8ec"/>
  <path class="d" d="M104.9 29.7L95 5.9c-1.4-3.6-2.6 0-2.6 0l-9.9 23.8v.7c0 11.7 2 20 5.2 25.8a35.2 35.2 0 0 0 6.2.5 36 36 0 0 0 5.8-.5 54.8 54.8 0 0 0 5.2-25.8v-.7z" opacity=".5"/>
  <path class="f" d="M93.7 7.7l9.7 22.8 1.4 3.2 2.4-2.6 3.9-4.3.2-.2.1-.3L120 9.5 115.2 44c-.5 1.3-4.5 11.3-21.3 11.4h-.2c-16.7 0-20.9-10-21.4-11.4l-4.5-33.4L76 26.3l.2.3.2.2 4 4.3 2.3 2.6 1.4-3.2 9.7-22.8m0-4.2c-.8 0-1.3 1.5-1.3 1.5L81.9 29.6l-4-4.3-10-19.7c-.5-1-1-1.4-1.4-1.4-.9 0-1.5 2-1.3 3L70 44.5s4 13.2 23.6 13.2h.2c19.7-.1 23.4-13.2 23.4-13.2l5.3-37.3a1.9 1.9 0 0 0-1.6-2.4c-.7 0-1.4.5-2 1.7l-9.6 18.9-4 4.3L95 5.1c-.5-1.2-1-1.6-1.3-1.6z"/>
  <path d="M72.6 37.6s3.7 6.7 21.3 6.7 21-6.7 21-6.7" fill="none" stroke="#b9d0e1" stroke-linecap="round" stroke-miterlimit="10" stroke-width="3.3"/>
  <path d="M29.7 1.7a1 1 0 0 0-1 .7l-7 18.1-19.4 1a1 1 0 0 0-1 .8 1 1 0 0 0 .3 1.2l15.2 12.3-5 18.8a1.1 1.1 0 0 0 .4 1.1 1 1 0 0 0 1.2 0l16.3-10.5L46 55.7a1 1 0 0 0 1.6-1.1l-5-18.8 15.1-12.3a1 1 0 0 0-.6-1.9l-19.4-1-7-18.1a1 1 0 0 0-1-.8z" fill="#fcd157"/>
  <path d="M33.2 11.2L29.7 2l-7.4 19.2-20.6 1.1 16 13-5.3 20 .4-.2c24.9-23 20.4-44 20.4-44z" fill="#fbe28b"/>
  <path d="M29.7 2.7a.1.1 0 0 1 .2 0l6.7 17.4.5 1.4h1.4l18.6 1a.2.2 0 0 1 .1.2.1.1 0 0 1 0 .1L42.7 34.5l-1.1 1 .4 1.3 4.8 18a.2.2 0 0 1 0 .2h-.3L31 44.9l-1.2-.8-1.2.8-15.6 10h-.2a.2.2 0 0 1 0-.1l4.8-18 .3-1.4-1-1L2.2 22.9a.1.1 0 0 1 0-.2.2.2 0 0 1 .1 0l18.6-1 1.4-.1.5-1.4 6.7-17.3a.2.2 0 0 1 .1-.1m0-2.2A2.4 2.4 0 0 0 27.5 2l-6.7 17.3-18.6 1A2.4 2.4 0 0 0 1 24.5l14.4 11.8-4.8 18a2.4 2.4 0 0 0 3.6 2.5l15.6-10.1 15.6 10.1a2.4 2.4 0 0 0 3.6-2.6l-4.8-18 14.4-11.7a2.4 2.4 0 0 0-1.3-4.2l-18.6-1L31.9 2A2.4 2.4 0 0 0 29.7.5z" fill="#f7c045"/>
</svg>
