<?xml version="1.0" standalone="no"?>
<!DOCTYPE svg PUBLIC "-//W3C//DTD SVG 20010904//EN"
 "http://www.w3.org/TR/2001/REC-SVG-20010904/DTD/svg10.dtd">
<svg version="1.0" xmlns="http://www.w3.org/2000/svg"
 width="1200.000000pt" height="1200.000000pt" viewBox="0 0 1200.000000 1200.000000"
 preserveAspectRatio="xMidYMid meet">
<metadata>
Created by potrace 1.11, written by Peter Selinger 2001-2013
</metadata>
<g transform="translate(0.000000,1200.000000) scale(0.100000,-0.100000)"
fill="#000000" stroke="none">
<path d="M5838 11995 c-1 -2 -28 -6 -58 -9 -344 -34 -717 -192 -1000 -424
-139 -114 -309 -309 -412 -472 -48 -77 -131 -249 -168 -350 -33 -90 -84 -292
-94 -372 -3 -27 -9 -69 -12 -95 -8 -59 -8 -310 0 -378 9 -85 18 -137 33 -205
7 -36 16 -78 19 -95 15 -86 97 -290 178 -441 106 -200 315 -440 516 -593 25
-19 49 -38 53 -42 5 -4 -11 -18 -35 -32 -23 -14 -207 -118 -408 -232 -201
-115 -441 -253 -534 -309 -149 -89 -171 -106 -187 -140 -9 -21 -16 -48 -14
-60 2 -12 6 -50 9 -86 16 -180 62 -362 131 -524 63 -147 66 -151 128 -165 29
-6 61 -13 72 -16 11 -2 36 -7 55 -9 19 -3 46 -8 60 -11 25 -5 204 -32 270 -40
58 -7 160 -16 229 -20 69 -4 254 -17 306 -21 17 -1 42 -2 58 -3 26 -1 27 -2
22 -48 -2 -27 -7 -82 -11 -123 -3 -41 -8 -79 -11 -84 -4 -5 -7 -23 -8 -40 -2
-17 -6 -62 -9 -101 -12 -122 -15 -158 -21 -235 -4 -41 -9 -88 -11 -105 -2 -16
-6 -55 -9 -85 -3 -30 -7 -68 -10 -85 -2 -16 -7 -61 -10 -100 -6 -69 -8 -81
-19 -160 -6 -43 -15 -109 -21 -165 -8 -74 -15 -126 -20 -150 -2 -14 -7 -54
-10 -89 -3 -35 -7 -67 -9 -70 -2 -3 -6 -28 -9 -56 -7 -59 -33 -228 -52 -340
-16 -91 -21 -121 -30 -185 -3 -25 -8 -52 -10 -60 -2 -8 -7 -31 -10 -50 -7 -43
-43 -237 -48 -265 -3 -11 -8 -40 -12 -65 -16 -98 -81 -180 -209 -264 -142 -94
-310 -166 -689 -296 -111 -38 -247 -85 -302 -105 -55 -20 -118 -43 -140 -50
-22 -7 -83 -32 -135 -55 -374 -165 -543 -305 -624 -518 -81 -213 -66 -430 44
-639 47 -90 48 -92 27 -99 -12 -4 -30 -8 -39 -9 -17 -2 -123 -64 -162 -94
-160 -128 -239 -218 -296 -336 -71 -146 -90 -300 -58 -465 29 -156 81 -277
170 -395 41 -54 75 -85 153 -137 114 -77 387 -219 520 -271 122 -49 257 -98
276 -102 9 -2 47 -12 85 -23 38 -11 112 -30 164 -42 52 -11 104 -23 115 -26
11 -3 34 -7 50 -10 17 -3 44 -9 60 -14 17 -5 46 -12 65 -15 19 -3 69 -13 110
-22 41 -8 84 -17 95 -18 11 -2 47 -9 80 -14 33 -6 78 -13 100 -16 22 -4 54 -9
70 -11 54 -9 279 -43 323 -48 106 -14 129 -17 152 -21 14 -2 52 -7 85 -10 111
-10 170 -16 205 -20 19 -2 71 -7 115 -10 44 -3 105 -8 135 -10 205 -15 346
-19 735 -19 437 -1 568 4 905 29 41 3 91 7 110 9 19 3 62 7 95 11 113 11 249
27 354 41 19 2 109 16 200 30 91 14 178 27 193 29 54 8 328 59 427 80 407 87
648 167 931 310 186 93 220 113 343 195 90 60 122 89 165 145 108 143 181 346
186 515 2 47 -1 95 -5 108 -6 15 -5 22 4 22 9 0 8 3 -1 9 -8 4 -13 11 -12 15
4 19 -25 120 -50 174 -81 171 -215 300 -435 417 -49 26 -92 50 -94 51 -2 2 3
12 11 21 42 48 109 211 126 308 9 51 8 208 -1 260 -16 88 -79 240 -124 296
-145 183 -430 338 -933 508 -36 12 -74 26 -85 30 -11 5 -45 16 -75 26 -80 26
-302 104 -325 115 -11 5 -49 20 -85 33 -58 22 -233 107 -285 140 -131 81 -215
185 -229 282 -4 22 -15 85 -26 140 -10 55 -21 114 -24 130 -4 30 -41 248 -50
295 -5 29 -25 152 -31 195 -2 17 -9 59 -14 95 -6 36 -13 83 -16 105 -7 50 -16
114 -21 140 -1 11 -6 47 -9 80 -3 33 -8 67 -10 75 -2 8 -6 40 -10 71 -3 31 -7
65 -9 75 -2 11 -7 46 -10 79 -4 33 -9 74 -11 90 -5 38 -13 106 -20 170 -3 28
-8 66 -10 85 -3 19 -7 62 -10 95 -3 33 -7 71 -10 85 -2 14 -6 57 -10 95 -3 39
-8 84 -10 100 -2 17 -6 68 -10 115 -4 47 -9 99 -11 115 -2 17 -6 73 -9 125
l-7 95 114 1 c116 1 336 11 398 18 19 3 60 7 90 11 49 5 253 36 335 50 56 10
95 16 97 16 2 0 23 5 48 13 40 11 48 18 76 72 28 54 61 137 99 249 11 34 36
144 36 160 0 2 4 19 9 37 14 47 25 152 25 241 0 73 -2 80 -26 101 -41 35 -580
354 -889 526 -36 20 -110 63 -166 95 l-101 59 86 67 c197 153 402 392 494 579
10 19 22 42 27 50 41 67 127 294 151 399 39 171 53 297 53 466 0 116 -11 281
-19 295 -2 3 -6 27 -9 54 -21 151 -88 355 -172 517 -24 47 -44 90 -44 96 0 6
-3 13 -8 15 -4 2 -23 28 -42 58 -100 159 -260 340 -400 452 -41 33 -84 67 -95
76 -30 24 -165 107 -242 148 -115 61 -298 129 -433 161 -91 21 -99 22 -155 29
-27 4 -54 9 -59 12 -10 6 -382 13 -388 7z"/>
</g>
</svg>
